# xmcd
#
# Track frame offsets: 
#        150
#        82945
#        99731
#        128381
#        154157
#        173480
#        192120
#        217190
#
# Disc length: 3140 seconds
#
# Revision: 4
# Processed by: cddbd v1.5.2PL0 Copyright (c) Steve Scherf et al.
# Submitted via: ExactAudioCopy v1.3
#
DISCID=5d0c4208
DTITLE=Dio - Magica {2013 Deluxe Edition} [CD2]
DYEAR=2013
DGENRE=Metal
TTITLE0=The Magica Story
TTITLE1=Annica
TTITLE2=Electra
TTITLE3=Feed My Head (Official Live Bootleg)
TTITLE4=Fever Dreams (Official Live Bootleg)
TTITLE5=Lord Of The Last Day (Official Live Bootleg)
TTITLE6=As Long As It's Not About Love (Official Live Bootleg)
TTITLE7=Losing My Insanity (Official Live Bootleg)
EXTD=
EXTT0=
EXTT1=
EXTT2=
EXTT3=
EXTT4=
EXTT5=
EXTT6=
EXTT7=
PLAYORDER=
